<svg width="700" height="500" viewBox="0 0 700 500" fill="none" xmlns="http://www.w3.org/2000/svg">
<style>
    #lines, #dots, #waves{
        will-change: transform;
    }
</style>
<rect width="700" height="500" fill="transparent"/>
<g id="lines">
    <path d="M52.3066 97.0249H77.8601" stroke="black" stroke-width="2" stroke-linecap="round"/>
    <path d="M72.7493 104.052H85.526" stroke="black" stroke-width="2" stroke-linecap="round"/>
    <path d="M86.8037 85.5259H98.3028" stroke="black" stroke-width="2" stroke-linecap="round"/>
    <path d="M564.654 245.235H586.375" stroke="black" stroke-width="2" stroke-linecap="round"/>
    <path d="M470.745 399.834H496.937" stroke="black" stroke-width="2" stroke-linecap="round"/>
    <path d="M463.718 408.139H475.856" stroke="black" stroke-width="2" stroke-linecap="round"/>
    <path d="M591.485 22.2809H615.122" stroke="black" stroke-width="2" stroke-linecap="round"/>
    <path d="M464.996 150.048H487.355" stroke="black" stroke-width="2" stroke-linecap="round"/>
    <path d="M480.328 155.798H495.66" stroke="black" stroke-width="2" stroke-linecap="round"/>
    <path d="M142.305 305H158.276" stroke="black" stroke-width="2" stroke-linecap="round"/>
    <path d="M134 311.388H144.221" stroke="black" stroke-width="2" stroke-linecap="round"/>
    <path d="M51.0288 240.763H63.1667" stroke="black" stroke-width="2" stroke-linecap="round"/>
    <path d="M633.01 315.507H645.787" stroke="black" stroke-width="2" stroke-linecap="round"/>
    <path d="M212.016 451.58H231.181" stroke="black" stroke-width="2" stroke-linecap="round"/>
</g>
<g id="dots">
    <path d="M651.613 87.1968C651.465 86.353 651.96 86.5934 652.081 87.1375C652.17 87.5403 651.646 87.4794 651.521 87.1968C651.405 86.936 651.579 86.5179 651.903 86.6106C652.169 86.6865 652.18 87.1968 651.85 87.1968" stroke="black" stroke-width="2" stroke-linecap="round"/>
    <path d="M115.128 123.599C114.981 122.756 115.475 122.996 115.596 123.54C115.685 123.943 115.162 123.882 115.036 123.599C114.92 123.339 115.094 122.921 115.418 123.013C115.684 123.089 115.695 123.599 115.365 123.599" stroke="black" stroke-width="2" stroke-linecap="round"/>
    <path d="M222.128 72.5994C221.981 71.7556 222.475 71.996 222.596 72.5401C222.685 72.9429 222.162 72.8819 222.036 72.5994C221.92 72.3386 222.094 71.9205 222.418 72.0131C222.684 72.0891 222.695 72.5994 222.365 72.5994" stroke="black" stroke-width="2" stroke-linecap="round"/>
    <path d="M497.128 214.599C496.981 213.756 497.475 213.996 497.596 214.54C497.685 214.943 497.162 214.882 497.036 214.599C496.92 214.339 497.094 213.921 497.418 214.013C497.684 214.089 497.695 214.599 497.365 214.599" stroke="black" stroke-width="2" stroke-linecap="round"/>
    <path d="M646.128 280.599C645.981 279.756 646.475 279.996 646.596 280.54C646.685 280.943 646.162 280.882 646.036 280.599C645.92 280.339 646.094 279.921 646.418 280.013C646.684 280.089 646.695 280.599 646.365 280.599" stroke="black" stroke-width="2" stroke-linecap="round"/>
    <path d="M512.128 417.599C511.981 416.756 512.475 416.996 512.596 417.54C512.685 417.943 512.162 417.882 512.036 417.599C511.92 417.339 512.094 416.921 512.418 417.013C512.684 417.089 512.695 417.599 512.365 417.599" stroke="black" stroke-width="2" stroke-linecap="round"/>
    <path d="M192.128 289.599C191.981 288.756 192.475 288.996 192.596 289.54C192.685 289.943 192.162 289.882 192.036 289.599C191.92 289.339 192.094 288.921 192.418 289.013C192.684 289.089 192.695 289.599 192.365 289.599" stroke="black" stroke-width="2" stroke-linecap="round"/>
    <path d="M45.1282 311.599C44.9805 310.756 45.475 310.996 45.5959 311.54C45.6854 311.943 45.1616 311.882 45.036 311.599C44.9201 311.339 45.0938 310.921 45.418 311.013C45.6839 311.089 45.6948 311.599 45.3653 311.599" stroke="black" stroke-width="2" stroke-linecap="round"/>
    <path d="M165.128 426.599C164.981 425.756 165.475 425.996 165.596 426.54C165.685 426.943 165.162 426.882 165.036 426.599C164.92 426.339 165.094 425.921 165.418 426.013C165.684 426.089 165.695 426.599 165.365 426.599" stroke="black" stroke-width="2" stroke-linecap="round"/>
</g>
<g id="waves">
    <path d="M604 453L604.659 452.247C604.281 451.918 603.719 451.918 603.341 452.247L604 453ZM612 460L611.341 460.753C611.728 461.091 612.307 461.081 612.682 460.731L612 460ZM619.5 453L620.182 452.269C619.798 451.91 619.202 451.91 618.818 452.269L619.5 453ZM627 460L626.318 460.731C626.512 460.912 626.77 461.009 627.036 460.999C627.301 460.99 627.552 460.875 627.733 460.68L627 460ZM596.659 460.753L604.659 453.753L603.341 452.247L595.341 459.247L596.659 460.753ZM603.341 453.753L611.341 460.753L612.659 459.247L604.659 452.247L603.341 453.753ZM612.682 460.731L620.182 453.731L618.818 452.269L611.318 459.269L612.682 460.731ZM618.818 453.731L626.318 460.731L627.682 459.269L620.182 452.269L618.818 453.731ZM627.733 460.68L634.233 453.68L632.767 452.32L626.267 459.32L627.733 460.68Z" fill="black"/>
    <path d="M496 285L496.659 284.247C496.281 283.918 495.719 283.918 495.341 284.247L496 285ZM504 292L503.341 292.753C503.728 293.091 504.307 293.081 504.682 292.731L504 292ZM511.5 285L512.182 284.269C511.798 283.91 511.202 283.91 510.818 284.269L511.5 285ZM519 292L518.318 292.731C518.512 292.912 518.77 293.009 519.036 292.999C519.301 292.99 519.552 292.875 519.733 292.68L519 292ZM488.659 292.753L496.659 285.753L495.341 284.247L487.341 291.247L488.659 292.753ZM495.341 285.753L503.341 292.753L504.659 291.247L496.659 284.247L495.341 285.753ZM504.682 292.731L512.182 285.731L510.818 284.269L503.318 291.269L504.682 292.731ZM510.818 285.731L518.318 292.731L519.682 291.269L512.182 284.269L510.818 285.731ZM519.733 292.68L526.233 285.68L524.767 284.32L518.267 291.32L519.733 292.68Z" fill="black"/>
    <path d="M142 15L142.659 14.2474C142.281 13.9175 141.719 13.9175 141.341 14.2474L142 15ZM150 22L149.341 22.7526C149.728 23.0905 150.307 23.0812 150.682 22.7311L150 22ZM157.5 15L158.182 14.2689C157.798 13.9104 157.202 13.9104 156.818 14.2689L157.5 15ZM165 22L164.318 22.7311C164.512 22.9123 164.77 23.0089 165.036 22.9994C165.301 22.9899 165.552 22.8751 165.733 22.6805L165 22ZM134.659 22.7526L142.659 15.7526L141.341 14.2474L133.341 21.2474L134.659 22.7526ZM141.341 15.7526L149.341 22.7526L150.659 21.2474L142.659 14.2474L141.341 15.7526ZM150.682 22.7311L158.182 15.7311L156.818 14.2689L149.318 21.2689L150.682 22.7311ZM156.818 15.7311L164.318 22.7311L165.682 21.2689L158.182 14.2689L156.818 15.7311ZM165.733 22.6805L172.233 15.6805L170.767 14.3195L164.267 21.3195L165.733 22.6805Z" fill="black"/>
    <path d="M104 378L104.659 377.247C104.281 376.918 103.719 376.918 103.341 377.247L104 378ZM112 385L111.341 385.753C111.728 386.091 112.307 386.081 112.682 385.731L112 385ZM119.5 378L120.182 377.269C119.798 376.91 119.202 376.91 118.818 377.269L119.5 378ZM127 385L126.318 385.731C126.512 385.912 126.77 386.009 127.036 385.999C127.301 385.99 127.552 385.875 127.733 385.68L127 385ZM96.6585 385.753L104.659 378.753L103.341 377.247L95.3415 384.247L96.6585 385.753ZM103.341 378.753L111.341 385.753L112.659 384.247L104.659 377.247L103.341 378.753ZM112.682 385.731L120.182 378.731L118.818 377.269L111.318 384.269L112.682 385.731ZM118.818 378.731L126.318 385.731L127.682 384.269L120.182 377.269L118.818 378.731ZM127.733 385.68L134.233 378.68L132.767 377.32L126.267 384.32L127.733 385.68Z" fill="black"/>
    <path d="M628 123L628.659 122.247C628.281 121.918 627.719 121.918 627.341 122.247L628 123ZM636 130L635.341 130.753C635.728 131.091 636.307 131.081 636.682 130.731L636 130ZM643.5 123L644.182 122.269C643.798 121.91 643.202 121.91 642.818 122.269L643.5 123ZM651 130L650.318 130.731C650.512 130.912 650.77 131.009 651.036 130.999C651.301 130.99 651.552 130.875 651.733 130.68L651 130ZM620.659 130.753L628.659 123.753L627.341 122.247L619.341 129.247L620.659 130.753ZM627.341 123.753L635.341 130.753L636.659 129.247L628.659 122.247L627.341 123.753ZM636.682 130.731L644.182 123.731L642.818 122.269L635.318 129.269L636.682 130.731ZM642.818 123.731L650.318 130.731L651.682 129.269L644.182 122.269L642.818 123.731ZM651.733 130.68L658.233 123.68L656.767 122.32L650.267 129.32L651.733 130.68Z" fill="black"/>
</g>
</svg>
